<svg width="224" height="225" viewBox="0 0 224 225" fill="none" xmlns="http://www.w3.org/2000/svg">
<path opacity="0.2" d="M216 112.82C216.031 124.42 212.909 135.811 206.967 145.774C201.024 155.737 192.486 163.898 182.265 169.384C172.043 174.869 160.523 177.474 148.935 176.918C137.348 176.363 126.13 172.668 116.48 166.23C115.153 165.327 113.585 164.844 111.98 164.844C110.375 164.844 108.807 165.327 107.48 166.23C100.137 171.156 91.8518 174.507 83.1485 176.072C74.4451 177.636 65.512 177.38 56.9126 175.319C48.3132 173.259 40.2341 169.439 33.185 164.1C26.1358 158.761 20.2695 152.019 15.9561 144.299C11.6427 136.58 8.97581 128.05 8.12365 119.249C7.2715 110.447 8.25256 101.564 11.005 93.1606C13.7573 84.7571 18.2214 77.015 24.1154 70.4229C30.0094 63.8308 37.2056 58.5317 45.25 54.8597C47.0563 54.0166 48.4827 52.5295 49.25 50.6897C54.4283 38.3273 63.1445 27.7709 74.3035 20.3466C85.4626 12.9224 98.5669 8.96143 111.97 8.96143C125.373 8.96143 138.477 12.9224 149.636 20.3466C160.796 27.7709 169.512 38.3273 174.69 50.6897C175.457 52.5295 176.884 54.0166 178.69 54.8597C189.791 59.9534 199.203 68.1174 205.815 78.3877C212.426 88.658 215.96 100.606 216 112.82Z" fill="#4ECB71"/>
<path d="M182.1 47.5998C176.313 33.7823 166.571 21.9832 154.099 13.6849C141.627 5.3867 126.981 0.959473 112 0.959473C97.0195 0.959473 82.3731 5.3867 69.9009 13.6849C57.4288 21.9832 47.6871 33.7823 41.9 47.5998C29.4471 53.3692 18.8939 62.5644 11.4741 74.1102C4.05427 85.6561 0.0744868 99.0756 -2.42324e-06 112.8C-0.110002 151.62 31.36 184 70.14 185C81.8713 185.306 93.4983 182.727 104 177.49V217C104 219.122 104.843 221.156 106.343 222.657C107.843 224.157 109.878 225 112 225C114.122 225 116.157 224.157 117.657 222.657C119.157 221.156 120 219.122 120 217V177.49C129.938 182.446 140.895 185.017 152 185H153.86C192.64 184 224.11 151.64 224 112.82C223.933 99.0914 219.956 85.6661 212.536 74.1157C205.115 62.5653 194.558 53.3677 182.1 47.5998ZM153.45 169C141.897 169.316 130.532 166.031 120.93 159.6C120.617 159.4 120.307 159.21 120 159.03V117.94L163.58 96.1598C164.52 95.6897 165.359 95.039 166.048 94.2448C166.736 93.4506 167.262 92.5286 167.594 91.5312C167.927 90.5339 168.06 89.4809 167.985 88.4323C167.91 87.3837 167.63 86.3601 167.16 85.4198C166.69 84.4795 166.039 83.6411 165.245 82.9523C164.451 82.2635 163.529 81.7379 162.531 81.4055C161.534 81.073 160.481 80.9403 159.433 81.0148C158.384 81.0893 157.36 81.3697 156.42 81.8398L120 100.06V72.9998C120 70.8781 119.157 68.8432 117.657 67.343C116.157 65.8427 114.122 64.9998 112 64.9998C109.878 64.9998 107.843 65.8427 106.343 67.343C104.843 68.8432 104 70.8781 104 72.9998V124.06L67.58 105.84C65.6811 104.89 63.4827 104.734 61.4686 105.405C59.4544 106.077 57.7895 107.521 56.84 109.42C55.8905 111.319 55.7343 113.517 56.4057 115.531C57.077 117.545 58.521 119.21 60.42 120.16L104 141.94V159C103.69 159.18 103.38 159.37 103.08 159.57C93.4775 166.012 82.109 169.307 70.55 169C57.9023 168.684 45.7342 164.094 36.0281 155.979C26.322 147.864 19.6499 136.701 17.0987 124.31C14.5475 111.918 16.2676 99.0272 21.9788 87.738C27.69 76.4487 37.0556 67.426 48.55 62.1398C52.1853 60.4742 55.0596 57.4999 56.6 53.8098C61.1664 42.8964 68.8571 33.5766 78.7054 27.0217C88.5536 20.4669 100.12 16.9696 111.95 16.9696C123.78 16.9696 135.346 20.4669 145.195 27.0217C155.043 33.5766 162.734 42.8964 167.3 53.8098C168.84 57.4999 171.715 60.4742 175.35 62.1398C186.844 67.426 196.21 76.4487 201.921 87.738C207.632 99.0272 209.352 111.918 206.801 124.31C204.25 136.701 197.578 147.864 187.872 155.979C178.166 164.094 165.998 168.684 153.35 169H153.45Z" fill="#4ECB71"/>
</svg>
